<svg width="25" height="24" viewBox="0 0 25 24" fill="none" xmlns="http://www.w3.org/2000/svg">
<path d="M11.334 13H7.33398V17H11.334V13Z" fill="#313438"/>
<path d="M17.334 13H13.334V17H17.334V13Z" fill="#313438"/>
<path d="M19.334 3H5.33398C4.23398 3 3.33398 3.9 3.33398 5V19C3.33398 20.1 4.23398 21 5.33398 21H19.334C20.434 21 21.334 20.1 21.334 19V5C21.334 3.9 20.434 3 19.334 3ZM19.334 19H5.33398V5H19.334V19Z" fill="#313438"/>
<path d="M11.334 7H7.33398V11H11.334V7Z" fill="#313438"/>
<path d="M17.334 7H13.334V11H17.334V7Z" fill="#313438"/>
</svg>
