<svg width="90" height="21" viewBox="0 0 90 21" fill="none" xmlns="http://www.w3.org/2000/svg">
<path fill-rule="evenodd" clip-rule="evenodd" d="M5.95899 6.56881L3.35584 9.17196C2.77958 9.74823 1.84527 9.74823 1.26901 9.17196L0.927514 8.83047C0.762867 8.66582 0.762867 8.39888 0.927514 8.23423L4.27596 4.88578C5.67023 3.49151 7.93079 3.49151 9.32505 4.88578L12.6735 8.23423C12.8381 8.39888 12.8381 8.66582 12.6735 8.83047L12.4811 9.0229C11.8225 9.68149 10.7547 9.68149 10.0961 9.0229L7.64202 6.56881C7.17727 6.10406 6.42375 6.10406 5.95899 6.56881Z" fill="#0076B4"/>
<path fill-rule="evenodd" clip-rule="evenodd" d="M7.64208 13.7686L10.2452 11.1654C10.8215 10.5892 11.7558 10.5892 12.3321 11.1654L12.6736 11.5069C12.8382 11.6716 12.8382 11.9385 12.6736 12.1032L9.32511 15.4516C7.93084 16.8459 5.67029 16.8459 4.27602 15.4516L0.927572 12.1032C0.762925 11.9385 0.762925 11.6716 0.927572 11.5069L1.12 11.3145C1.77859 10.6559 2.84637 10.6559 3.50496 11.3145L5.95905 13.7686C6.42381 14.2333 7.17732 14.2333 7.64208 13.7686Z" fill="#2DE4CF"/>
<path d="M41.2319 11.4557C40.6155 10.9175 39.5574 10.4357 38.3919 10.0084C37.5755 9.69749 36.8683 9.46477 36.6028 9.3084C36.3374 9.15204 36.201 8.93931 36.1901 8.66658C36.181 8.42113 36.2774 8.22294 36.481 8.07385C36.6846 7.92476 37.1465 7.85022 37.5355 7.85022C38.0701 7.85022 38.7137 8.02658 39.1483 8.45204C39.501 8.79749 39.8374 9.1284 40.3628 9.23385C40.6392 9.2884 40.9246 9.29022 41.2028 9.25749C41.4337 9.23022 42.0719 9.11749 42.0701 9.11022C42.0701 9.09204 41.901 8.23931 41.901 8.23931C41.6992 7.4484 41.2265 6.83022 40.4846 6.38295C39.741 5.93567 38.5919 5.71204 37.3701 5.71204C36.5355 5.71204 35.6592 5.85203 35.0719 6.13022C34.4846 6.4084 34.0428 6.78113 33.7428 7.24658C33.4428 7.71385 33.3046 8.2375 33.3265 8.82113C33.3555 9.59932 33.6737 10.2593 34.2846 10.8029C34.8937 11.3466 35.9192 11.8066 37.0265 12.1829C37.6246 12.4029 38.2319 12.5811 38.5174 12.7175C38.8028 12.8539 39.0046 12.992 39.1265 13.1357C39.2465 13.2775 39.3101 13.4593 39.3192 13.6793C39.3446 14.3702 38.581 14.5866 37.9065 14.5593C37.7446 14.552 37.4192 14.532 37.2792 14.4993C36.9337 14.4193 36.5992 14.2811 36.3028 14.083C36.0265 13.8993 35.8246 13.6357 35.5501 13.452C34.9992 13.0829 34.3301 13.0429 33.701 13.2102C33.5083 13.2611 33.0319 13.4175 32.901 13.4593C32.8828 13.4611 32.8683 13.4611 32.8683 13.4611C32.8683 13.4629 32.8701 13.4666 32.8665 13.4702C32.8665 13.4702 32.8846 13.5684 32.9101 13.6429C33.1155 14.2339 33.4283 14.7629 33.8374 15.2339C34.8374 16.4429 36.5337 16.7302 38.0265 16.7302C38.9465 16.7302 39.7246 16.572 40.3592 16.2539C40.9955 15.9375 41.4646 15.532 41.7701 15.0393C42.0755 14.5466 42.2192 14.0357 42.1992 13.5048C42.1719 12.6775 41.8483 11.9939 41.2319 11.4557Z" fill="#24303D"/>
<path d="M88.8591 11.4557C88.2427 10.9175 87.1846 10.4357 86.0191 10.0084C85.2027 9.69749 84.4955 9.46477 84.23 9.3084C83.9646 9.15204 83.8282 8.93931 83.8173 8.66658C83.8082 8.42113 83.9046 8.22294 84.1082 8.07385C84.3118 7.92476 84.7737 7.85022 85.1627 7.85022C85.6973 7.85022 86.3409 8.02658 86.7755 8.45204C87.1282 8.79749 87.4646 9.1284 87.99 9.23385C88.2664 9.2884 88.5518 9.29022 88.83 9.25749C89.0609 9.23022 89.6991 9.11749 89.6973 9.11022C89.6973 9.09204 89.5282 8.23931 89.5282 8.23931C89.3264 7.4484 88.8537 6.83022 88.1118 6.38295C87.3682 5.93567 86.2191 5.71204 84.9973 5.71204C84.1627 5.71204 83.2864 5.85203 82.6991 6.13022C82.1118 6.4084 81.67 6.78113 81.37 7.24658C81.07 7.71385 80.9318 8.2375 80.9537 8.82113C80.9827 9.59932 81.3009 10.2593 81.9118 10.8029C82.5209 11.3466 83.5464 11.8066 84.6537 12.1829C85.2518 12.4029 85.8591 12.5811 86.1446 12.7175C86.43 12.8539 86.6318 12.992 86.7537 13.1357C86.8737 13.2775 86.9373 13.4593 86.9464 13.6793C86.9718 14.3702 86.2082 14.5866 85.5337 14.5593C85.3718 14.552 85.0464 14.532 84.9064 14.4993C84.5609 14.4193 84.2264 14.2811 83.93 14.083C83.6537 13.8993 83.4518 13.6357 83.1773 13.452C82.6264 13.0829 81.9573 13.0429 81.3282 13.2102C81.1355 13.2611 80.6591 13.4175 80.5282 13.4593C80.51 13.4611 80.4955 13.4611 80.4955 13.4611C80.4955 13.4629 80.4973 13.4666 80.4937 13.4702C80.4937 13.4702 80.5118 13.5684 80.5373 13.6429C80.7427 14.2339 81.0555 14.7629 81.4646 15.2339C82.4646 16.4429 84.1609 16.7302 85.6537 16.7302C86.5737 16.7302 87.3518 16.572 87.9864 16.2539C88.6227 15.9375 89.0918 15.532 89.3973 15.0393C89.7027 14.5466 89.8464 14.0357 89.8264 13.5048C89.7991 12.6775 89.4755 11.9939 88.8591 11.4557Z" fill="#24303D"/>
<path d="M27.4231 5.76453C26.1867 5.76453 25.2031 6.12997 24.474 6.85724V7.33907V7.04634C24.474 6.49362 24.0267 6.04634 23.474 6.04634H21.6467V15.5573C21.6467 16.11 22.094 16.5573 22.6467 16.5573H24.4576V10.3863C24.4576 9.69725 24.7958 9.0518 25.3649 8.66089L25.3758 8.65361C25.7667 8.38452 26.2013 8.2518 26.6795 8.2518C27.4376 8.2518 27.994 8.44452 28.3504 8.82998C28.7067 9.21543 28.8831 9.83362 28.8831 10.6845L28.8904 15.5536C28.8904 16.1045 29.3376 16.55 29.8885 16.5518L31.6413 16.5554V10.4118C31.6413 7.31362 30.2358 5.76453 27.4231 5.76453Z" fill="#24303D"/>
<path d="M58.752 10.1994C58.7175 10.0121 58.7047 9.82124 58.6466 9.6376C58.5575 9.24487 58.4138 8.87033 58.2266 8.51397C58.1866 8.45215 58.1575 8.38488 58.1193 8.32124C57.4011 7.09033 56.3211 6.33214 54.9538 5.99578C53.3229 5.59396 51.9211 5.76668 50.4647 6.64123C49.592 7.16487 48.9556 7.90851 48.5047 8.81578C48.4611 8.90123 48.4211 8.98851 48.3902 9.07942C47.8102 10.5976 47.8538 12.1103 48.4266 13.6194C48.4593 13.6794 48.4611 13.7521 48.5084 13.8049C48.9593 14.734 49.6029 15.4921 50.5047 16.014C50.5375 16.0321 50.5702 16.0485 50.6047 16.0667C50.6738 16.1158 50.7575 16.1358 50.8284 16.1831C52.2647 16.8449 53.5484 16.8703 55.012 16.3521C55.0302 16.3449 55.2684 16.2558 55.4284 16.1631C55.7157 15.994 56.0793 15.7303 56.0793 15.7303C56.0793 15.7303 56.3338 15.4921 56.3338 15.4958C56.2793 16.1358 56.1411 16.794 55.6447 17.3503C55.2557 17.7867 54.5738 18.0194 54.0193 18.1649C53.2047 18.3776 52.3847 18.4012 51.5757 18.1558C50.812 17.9249 50.1502 18.1412 49.6157 18.7321C49.4757 18.8867 49.4338 18.9321 49.2938 19.0885C49.2466 19.1412 49.1902 19.1994 49.1902 19.1994C49.1902 19.1994 49.2611 19.2976 49.312 19.3412C50.0247 19.9703 50.8556 20.3612 51.7847 20.5267C52.9902 20.7394 54.2811 20.6903 55.4502 20.3212C56.5957 19.9594 57.4975 19.1867 58.1138 18.1631C58.152 18.0994 58.1793 18.0321 58.2211 17.9703C58.4084 17.614 58.5502 17.2394 58.6411 16.8467C58.7047 16.6503 58.7138 16.4449 58.7538 16.2449C58.7775 16.123 58.792 15.4558 58.7993 15.0085C58.8029 15.0067 58.8066 15.0067 58.8066 15.0067V10.8885C58.8084 10.8921 58.7866 10.3885 58.752 10.1994ZM53.7502 14.1558C52.5556 14.3467 51.4647 13.8176 50.9047 12.7794C50.7557 12.5012 50.6738 12.1994 50.6011 11.894C50.5175 11.4685 50.5175 11.0449 50.6011 10.6194C50.652 10.4121 50.6993 10.2049 50.7811 10.0085C51.172 9.06851 51.872 8.50669 52.8793 8.37032C53.8902 8.23396 54.7811 8.49578 55.4247 9.32669C56.0357 10.1158 56.1302 11.0358 55.9647 11.9867C55.7684 13.1158 54.8738 13.9776 53.7502 14.1558Z" fill="#24303D"/>
<path d="M79.6358 15.065C79.1613 14.425 78.5249 14.1432 77.7431 14.2995C77.6068 14.3268 77.0068 14.6013 76.5958 14.2941C76.1922 13.9923 76.1704 13.4268 76.1595 12.9486L76.1504 12.7359V8.21771H79.2213V7.02317C79.2213 6.47044 78.774 6.02317 78.2213 6.02317H76.1504V4.03589C76.1504 3.48316 75.7031 3.03589 75.1504 3.03589H73.3086V6.02317H71.5122V7.21771C71.5122 7.77044 71.9595 8.21771 72.5122 8.21771H73.3086V12.7359L73.3195 12.9886C73.3195 14.1613 73.6231 15.0886 74.2286 15.7686C75.154 16.805 76.734 16.9632 78.0213 16.6868C78.7122 16.5377 79.3704 16.2504 79.9431 15.8377C79.9958 15.7995 80.0777 15.7213 80.0777 15.7213C80.0777 15.7213 79.734 15.1977 79.6358 15.065Z" fill="#24303D"/>
<path d="M17.1902 4.96633C16.892 4.66269 16.7429 4.29542 16.7429 3.86815C16.7429 3.44087 16.892 3.07542 17.1902 2.76996C17.4884 2.46633 17.8502 2.3136 18.2793 2.3136C18.7066 2.3136 19.0702 2.46633 19.3684 2.76996C19.6666 3.0736 19.8156 3.44087 19.8156 3.86815C19.8156 4.29542 19.6666 4.66269 19.3684 4.96633C19.0702 5.27179 18.7084 5.4227 18.2793 5.4227C17.8502 5.4227 17.4866 5.26997 17.1902 4.96633ZM18.6575 16.5572H16.8975V7.04451C16.8975 6.49178 17.3447 6.04451 17.8975 6.04451H19.6575V15.5572C19.6575 16.11 19.2102 16.5572 18.6575 16.5572Z" fill="#24303D"/>
<path d="M44.1284 4.96633C43.8302 4.66269 43.6812 4.29542 43.6812 3.86815C43.6812 3.44087 43.8302 3.07542 44.1284 2.76996C44.4266 2.46633 44.7884 2.3136 45.2175 2.3136C45.6448 2.3136 46.0084 2.46633 46.3066 2.76996C46.6048 3.0736 46.7539 3.44087 46.7539 3.86815C46.7539 4.29542 46.6048 4.66269 46.3066 4.96633C46.0084 5.27179 45.6466 5.4227 45.2175 5.4227C44.7884 5.4227 44.4248 5.26997 44.1284 4.96633ZM45.5957 16.5572H43.8357V7.04451C43.8357 6.49178 44.283 6.04451 44.8357 6.04451H46.5957V15.5572C46.5957 16.11 46.1484 16.5572 45.5957 16.5572Z" fill="#24303D"/>
<path d="M66.2483 5.39934C65.012 5.39934 64.0283 5.76479 63.2992 6.49207V1.54297C63.2992 0.990241 63.0174 0.542969 62.4665 0.542969H60.3047L60.472 16.5902H62.2829C62.8356 16.5902 63.2829 16.143 63.2829 15.5902V10.0193C63.2829 9.33024 63.6211 8.68479 64.1901 8.29388L64.201 8.28661C64.592 8.01752 65.0265 7.88479 65.5047 7.88479C66.2629 7.88479 66.8192 8.07751 67.1756 8.46297C67.532 8.84842 67.7083 9.46661 67.7083 10.3175V15.5848C67.7083 16.1357 68.1538 16.583 68.7047 16.5848L69.5665 16.5866H70.4647V10.0466C70.4665 6.94843 69.0611 5.39934 66.2483 5.39934Z" fill="#24303D"/>
</svg>
