<svg xmlns="http://www.w3.org/2000/svg" width="24" height="24" viewBox="0 0 24 24" fill="none" stroke="currentColor" stroke-width="2" stroke-linecap="round" stroke-linejoin="round">
  <path d="M12 2a8 8 0 0 1 8 8v1a4 4 0 0 1 0 8v1a1 1 0 0 1-1 1H5a1 1 0 0 1-1-1v-1a4 4 0 0 1 0-8v-1a8 8 0 0 1 8-8z"></path>
  <path d="M9.5 9a.5.5 0 0 1 .5.5v1a.5.5 0 0 1-.5.5.5.5 0 0 1-.5-.5v-1a.5.5 0 0 1 .5-.5"></path>
  <path d="M14.5 9a.5.5 0 0 1 .5.5v1a.5.5 0 0 1-.5.5.5.5 0 0 1-.5-.5v-1a.5.5 0 0 1 .5-.5"></path>
  <path d="M9 16.5c0 .828 1.343 1.5 3 1.5s3-.672 3-1.5"></path>
</svg> 